<?xml version="1.0" encoding="iso-8859-1"?>
<!-- Uploaded to: SVG Repo, www.svgrepo.com, Generator: SVG Repo Mixer Tools -->
<!DOCTYPE svg PUBLIC "-//W3C//DTD SVG 1.1//EN" "http://www.w3.org/Graphics/SVG/1.1/DTD/svg11.dtd">
<svg fill="#000000" height="800px" width="800px" version="1.1" id="Capa_1" xmlns="http://www.w3.org/2000/svg" xmlns:xlink="http://www.w3.org/1999/xlink" 
	 viewBox="0 0 365.483 365.483" xml:space="preserve">
<g>
	<g>
		<g>
			<path d="M214.942,200.5h-64.401c-2.139,0-4.174-0.912-5.598-2.507l-16.84-18.875c-1.225-1.374-1.902-3.151-1.902-4.993v-64.829
				h-9.494c-4.143,0-7.5-3.358-7.5-7.5v-35.39c0-4.143,3.357-7.5,7.5-7.5h55.78c4.143,0,7.5,3.357,7.5,7.5v35.39
				c0,4.142-3.357,7.5-7.5,7.5h-5.432v42.511h31.371v-42.511h-5.43c-4.143,0-7.5-3.358-7.5-7.5v-35.39c0-4.143,3.357-7.5,7.5-7.5
				h55.777c4.143,0,7.5,3.357,7.5,7.5v35.39c0,4.142-3.357,7.5-7.5,7.5h-9.492v64.829c0,1.842-0.678,3.619-1.904,4.993
				l-16.84,18.875C219.116,199.588,217.079,200.5,214.942,200.5z M153.901,185.5h57.682l12.699-14.234v-69.47
				c0-4.144,3.357-7.5,7.5-7.5h9.492v-20.39h-40.777v20.39h5.43c4.143,0,7.5,3.356,7.5,7.5v57.511c0,4.143-3.357,7.5-7.5,7.5
				h-46.371c-4.143,0-7.5-3.357-7.5-7.5v-57.511c0-4.144,3.357-7.5,7.5-7.5h5.432v-20.39h-40.779v20.39h9.494
				c4.143,0,7.5,3.356,7.5,7.5v69.47L153.901,185.5z"/>
		</g>
		<path d="M342.105,0H23.378c-4.143,0-7.5,3.358-7.5,7.5v24.324c0,4.142,3.357,7.5,7.5,7.5h17.22L175.829,360.89
			c1.17,2.783,3.895,4.593,6.912,4.593c3.019,0,5.744-1.81,6.914-4.593l135.23-321.565h17.219c4.143,0,7.5-3.357,7.5-7.5V7.5
			C349.605,3.358,346.247,0,342.105,0z M182.741,338.636l-33.2-78.945l33.116-19.941l33.486,19.463L182.741,338.636z
			 M222.005,245.269l-35.646-20.718c-2.367-1.376-5.293-1.354-7.639,0.06l-35.053,21.109L56.869,39.324h251.745L222.005,245.269z
			 M334.605,24.324H30.878V15h303.727V24.324z"/>
	</g>
</g>
</svg>